<svg width="220" height="219" viewBox="0 0 220 219" fill="none" xmlns="http://www.w3.org/2000/svg">
<path d="M125.134 0.358977C125.134 0.358977 97.4457 70.9921 126.951 89.5362C156.457 108.08 208.057 52.4754 208.057 52.4754C208.057 52.4754 135.545 74.8195 139.462 109.435C143.379 144.05 219.066 149.758 219.066 149.758C219.066 149.758 156.334 106.987 131.712 131.607C107.091 156.228 149.871 218.95 149.871 218.95C149.871 218.95 144.157 143.272 109.538 139.358C74.9186 135.444 52.5772 207.95 52.5772 207.95C52.5772 207.95 108.185 156.351 89.6362 126.85C71.0879 97.3489 0.448914 125.04 0.448914 125.04C0.448914 125.04 75.5043 136.375 86.9941 103.502C98.4839 70.6292 32.7399 32.6531 32.7399 32.6531C32.7399 32.6531 70.7251 98.387 103.601 86.8961C136.477 75.4051 125.134 0.358977 125.134 0.358977Z" fill="#D7C3FF"/>
</svg>
