<svg width="157" height="40" viewBox="0 0 157 40" fill="none" xmlns="http://www.w3.org/2000/svg">
    <g clip-path="url(#clip0_535_77)">
        <path
            d="M66.3824 35.3434C64.3151 35.3434 62.3993 34.9721 60.6352 34.2296C58.8988 33.4595 57.3966 32.4006 56.1283 31.053C54.8879 29.678 53.9096 28.069 53.1928 26.2264C52.5039 24.3563 52.159 22.3073 52.159 20.0797C52.159 17.8521 52.4901 15.8856 53.1515 14.0154C53.8128 12.1178 54.7499 10.4813 55.9631 9.10624C57.2034 7.70368 58.6919 6.6172 60.4283 5.84717C62.1924 5.04964 64.1633 4.65088 66.341 4.65088C68.1602 4.65088 69.7866 4.91214 71.2199 5.43466C72.6532 5.92968 73.8798 6.63095 74.8998 7.53849C75.947 8.41852 76.7739 9.46375 77.3803 10.6738C77.9867 11.8838 78.3729 13.1903 78.5379 14.5929H72.5843C72.3086 13.1078 71.633 11.9251 70.5578 11.0451C69.483 10.1375 68.0773 9.68376 66.3406 9.68376C64.9623 9.68376 63.7633 9.95877 62.7433 10.5088C61.7512 11.0313 60.9241 11.7601 60.2628 12.6951C59.6009 13.6302 59.1051 14.7304 58.774 15.9954C58.4432 17.2607 58.2782 18.622 58.2782 20.0795C58.2782 21.5371 58.4572 22.9811 58.8157 24.2461C59.2014 25.5114 59.7391 26.6114 60.428 27.5464C61.1448 28.454 61.9994 29.169 62.9915 29.6915C64.0116 30.1865 65.1418 30.434 66.382 30.434C68.146 30.434 69.5931 29.9665 70.7234 29.0315C71.881 28.069 72.5563 26.8039 72.7493 25.2362H78.6208C78.5377 26.5562 78.221 27.8215 77.6695 29.0315C77.1182 30.214 76.3467 31.273 75.3542 32.2081C74.3345 33.1706 73.0938 33.9408 71.633 34.5183C70.1997 35.0684 68.4492 35.3434 66.382 35.3434H66.3824ZM80.6302 13.5614H86.2531V34.7244H80.6302V13.5614ZM80.6302 5.22821H86.2531V10.2611H80.6302V5.22821ZM88.016 13.5614H90.9515V6.96077H96.4506V13.5614H100.089V17.2742H96.4506V28.4952C96.4506 29.2928 96.6437 29.8428 97.0294 30.1453C97.4157 30.4478 97.9252 30.5991 98.5595 30.5991H99.6343C99.8274 30.5991 100.021 30.5853 100.213 30.5578V34.6831C99.9379 34.7107 99.6343 34.7244 99.3035 34.7244C99.0003 34.7519 98.6284 34.7657 98.187 34.7657H96.6986C96.0097 34.7657 95.3203 34.6969 94.6314 34.5594C93.9699 34.3944 93.3637 34.1194 92.8122 33.7344C92.261 33.3494 91.806 32.8268 91.4477 32.1668C91.1169 31.5068 90.9513 30.6817 90.9513 29.6915V17.2742H88.0158V13.5614H88.016ZM107.781 16.9442H107.905C108.539 15.7342 109.256 14.8265 110.055 14.2214C110.855 13.6164 111.874 13.3139 113.115 13.3139C113.693 13.3139 114.135 13.3689 114.438 13.4789V18.388H114.314C112.467 18.1955 110.951 18.5943 109.766 19.5843C108.58 20.5744 107.988 22.1834 107.988 24.4109V34.7244H102.365V13.5614H107.781V16.9442ZM125.599 35.3434C123.835 35.3434 122.263 35.0546 120.885 34.4771C119.535 33.8996 118.391 33.1158 117.453 32.1256C116.516 31.108 115.8 29.9115 115.304 28.5365C114.835 27.1614 114.601 25.6899 114.601 24.1224C114.601 22.5548 114.849 21.0971 115.345 19.7495C115.869 18.3745 116.585 17.1917 117.495 16.2017C118.432 15.2117 119.535 14.4279 120.803 13.8502C122.098 13.2726 123.518 12.9839 125.062 12.9839C126.771 12.9839 128.273 13.3001 129.568 13.9327C130.864 14.5377 131.953 15.404 132.835 16.5317C133.717 17.6592 134.378 19.007 134.819 20.5745C135.288 22.1146 135.522 23.8336 135.522 25.7312H120.141C120.362 27.3814 120.913 28.674 121.795 29.609C122.705 30.5441 123.959 31.0116 125.558 31.0116C126.661 31.0116 127.543 30.7778 128.204 30.3103C128.865 29.8428 129.348 29.2103 129.651 28.4127H135.191C134.999 29.3478 134.64 30.2417 134.116 31.0943C133.62 31.9193 132.959 32.6483 132.132 33.2808C131.333 33.9133 130.381 34.4083 129.279 34.7658C128.176 35.1509 126.95 35.3434 125.599 35.3434H125.599ZM125.144 17.3155C123.656 17.3155 122.526 17.728 121.754 18.553C120.982 19.3506 120.472 20.4506 120.224 21.8533H129.651C129.568 20.5058 129.114 19.4193 128.286 18.5943C127.487 17.7418 126.44 17.3155 125.144 17.3155ZM150.86 34.7246C150.694 34.5046 150.556 34.1746 150.446 33.7346C150.336 33.2945 150.253 32.8408 150.198 32.3733H150.116C149.84 32.7858 149.523 33.1708 149.165 33.5283C148.834 33.8583 148.42 34.1471 147.924 34.3946C147.456 34.6421 146.891 34.8346 146.229 34.9721C145.567 35.1371 144.782 35.2196 143.872 35.2196C141.695 35.2196 139.916 34.6696 138.539 33.5695C137.16 32.4695 136.471 30.8605 136.471 28.7429C136.471 27.5879 136.692 26.6116 137.133 25.8139C137.574 25.0163 138.18 24.3563 138.952 23.8336C139.724 23.3111 140.62 22.9123 141.639 22.6373C142.687 22.3348 143.804 22.101 144.989 21.936C146.753 21.6885 148.049 21.4273 148.876 21.1523C149.702 20.8773 150.116 20.341 150.116 19.5435C150.116 18.7459 149.813 18.1684 149.206 17.7284C148.627 17.2609 147.745 17.0271 146.56 17.0271C145.237 17.0271 144.244 17.2746 143.583 17.7696C142.922 18.2372 142.55 18.9797 142.467 19.9974H137.464C137.491 19.0624 137.698 18.1823 138.084 17.3571C138.47 16.5046 139.035 15.7621 139.779 15.1293C140.524 14.4968 141.461 13.9881 142.591 13.603C143.721 13.218 145.058 13.0255 146.602 13.0255C149.772 13.0255 152.046 13.713 153.423 15.0883C154.829 16.4358 155.532 18.3473 155.532 20.8224V31.5897C155.532 33.1847 155.781 34.161 156.276 34.5187V34.725H150.86L150.86 34.7246ZM145.236 31.3005C146.036 31.3005 146.739 31.1905 147.345 30.9705C147.979 30.723 148.503 30.4205 148.917 30.063C149.357 29.678 149.688 29.2517 149.909 28.7842C150.129 28.2892 150.239 27.7804 150.239 27.2577V24.0811C149.743 24.3836 149.137 24.6311 148.42 24.8236C147.731 24.9887 147.028 25.1537 146.312 25.3187C144.823 25.6487 143.72 26.0337 143.004 26.4737C142.287 26.9137 141.928 27.6288 141.928 28.619C141.928 29.6092 142.232 30.3103 142.838 30.7228C143.445 31.1078 144.244 31.3003 145.236 31.3003V31.3005Z"
            fill="#333235" />
        <path
            d="M21.8441 15.1431C20.7538 15.1431 19.7776 14.5807 19.2325 13.6388L11.8603 0.898926H31.8279L24.4557 13.6388C23.9106 14.5807 22.9344 15.1431 21.8441 15.1431Z"
            fill="#333235" />
        <path
            d="M28.6681 19.0747C27.5778 19.0747 26.6014 18.5122 26.0563 17.5701C25.5111 16.6282 25.5111 15.5033 26.0563 14.5612L33.4283 1.82178L43.4121 19.0747H28.6679H28.6681Z"
            fill="#333235" />
        <path
            d="M11.8603 39.0946L19.2325 26.3549C19.7776 25.413 20.7538 24.8506 21.8441 24.8506C22.9344 24.8506 23.9106 25.413 24.4557 26.3549L31.8279 39.0946H11.8603Z"
            fill="#333235" />
        <path
            d="M26.0565 25.4327C25.5111 24.4907 25.5111 23.3659 26.0565 22.4238C26.6016 21.4819 27.578 20.9194 28.6683 20.9194H43.4125L33.4287 38.1721L26.0567 25.4329L26.0565 25.4327Z"
            fill="#333235" />
        <path
            d="M0.275879 19.0747L10.2599 1.82178L17.6317 14.5612C18.177 15.5032 18.177 16.628 17.6317 17.5701C17.0866 18.5122 16.1102 19.0747 15.0199 19.0747H0.275879Z"
            fill="#333235" />
        <path
            d="M0.275879 20.9194H15.0201C16.1104 20.9194 17.0867 21.4819 17.6319 22.4238C18.177 23.3659 18.177 24.4907 17.6319 25.4327L10.2601 38.1719L0.275879 20.9194Z"
            fill="#333235" />
    </g>
    <defs>
        <clipPath id="clip0_535_77">
            <rect width="156" height="38.1959" fill="white" transform="translate(0.275879 0.898926)" />
        </clipPath>
    </defs>
</svg>
    