<svg width="161" height="26" viewBox="0 0 161 26" fill="none" xmlns="http://www.w3.org/2000/svg">
    <g clip-path="url(#clip0_535_54)">
        <path
            d="M77.9058 19.5547C76.6531 20.6764 75.6353 21.6933 74.5088 22.575C70.4506 25.7655 65.9401 26.7388 61.125 24.718C59.4374 23.9585 57.9585 22.7976 56.8189 21.3311C53.8612 17.5208 54.0004 11.0176 56.8189 7.29465C59.7201 3.48439 65.2354 1.99607 70.0113 3.71134C73.8172 5.07309 76.5966 7.72674 79.0236 10.8387C79.1889 11.0482 79.3499 11.2533 79.563 11.5195C79.6152 11.5806 79.6804 11.6287 79.7587 11.6505C79.837 11.6723 79.9197 11.6679 79.9936 11.6417C80.0719 11.6156 80.1371 11.5632 80.1806 11.4977C80.2285 11.4322 80.2502 11.3537 80.2502 11.2708V0.677975C80.2502 0.573226 80.2894 0.472841 80.3633 0.403008C80.4373 0.328811 80.5373 0.28953 80.6374 0.28953L85.5524 0.215332C85.6568 0.215332 85.7568 0.254613 85.8264 0.328811C85.9004 0.403008 85.9395 0.503393 85.9395 0.603778V24.5216C85.9395 24.6263 85.9004 24.7267 85.8264 24.7965C85.7525 24.8707 85.6524 24.91 85.5524 24.91C83.5255 24.91 82.7556 24.9406 80.7591 24.9406L77.8927 19.5547H77.9058ZM61.634 14.0815C61.5992 19.0222 65.3703 21.6497 69.3414 19.4456C71.2074 18.4112 72.621 16.5301 74.1738 14.9588C74.2695 14.7711 74.3174 14.5616 74.313 14.3521C74.3087 14.1426 74.2478 13.9331 74.139 13.7542C72.8037 12.327 71.5162 10.8038 69.9591 9.65151C69.1283 9.00992 68.1235 8.63457 67.0753 8.57346C66.027 8.51236 64.9875 8.7655 64.0871 9.30671C62.1342 10.376 61.7079 12.3008 61.634 14.0728V14.0859V14.0815Z"
            fill="#333235" />
        <path
            d="M20.4278 24.2793C20.4278 24.2793 20.4278 20.3992 20.3495 18.4832C20.2625 15.9735 20.8454 11.7312 18.6619 9.92425C15.5084 7.30988 10.8413 10.5135 9.05795 13.2588C7.12673 16.2354 6.35685 19.9584 6.14372 23.4675C6.11762 23.9345 6.14372 24.6634 6.14372 25.3268C6.14372 25.4315 6.10457 25.5275 6.03063 25.6017C5.95669 25.6759 5.861 25.7152 5.75661 25.7152H1.41571C1.16343 25.7152 1.54185 25.7327 1.11124 25.7327C1.00685 25.7327 0.911154 25.6934 0.837211 25.6192C0.763267 25.545 0.724121 25.449 0.724121 25.3442V4.7959L5.60437 4.77844C5.70876 4.77844 5.80445 4.81772 5.8784 4.89192C5.95234 4.96612 5.99149 5.06214 5.99149 5.16689C5.99149 7.02619 6.03933 6.43697 6.04368 7.93402C6.04368 8.01258 6.06978 8.08678 6.11327 8.15224C6.15677 8.21771 6.22201 8.26572 6.29161 8.29627C6.36555 8.32246 6.44384 8.33119 6.51779 8.31373C6.59173 8.29627 6.66132 8.25699 6.71352 8.19589C7.15283 7.69833 7.56604 7.0742 8.07059 6.61155C12.9247 2.11169 20.0929 2.60489 23.9727 7.62413C25.4472 9.57073 25.73 11.8097 25.7082 14.2583C25.73 16.1961 25.7082 18.1034 25.7082 20.0195C25.7082 21.0146 25.7082 21.9966 25.73 22.9917C25.73 23.402 25.6908 24.7114 25.656 25.3268C25.656 25.4315 25.6169 25.5275 25.5429 25.6017C25.469 25.6759 25.3733 25.7152 25.2689 25.7152L24.5686 25.737L23.142 25.7589H20.8106C20.7062 25.7589 20.6105 25.7196 20.5365 25.6454C20.4626 25.5712 20.4235 25.4752 20.4235 25.3704V24.288L20.4278 24.2793Z"
            fill="#333235" />
        <path
            d="M40.4606 2.60645C33.6361 2.60645 28.1208 7.78281 28.1208 14.1638C28.1208 20.5448 33.6535 25.7211 40.478 25.7211C47.3025 25.7211 52.8134 20.5491 52.8134 14.1638C52.8134 7.77845 47.2808 2.60645 40.4606 2.60645ZM40.4606 20.4357C36.5546 20.4357 33.3838 17.6293 33.3838 14.1594C33.3838 10.6896 36.5503 7.8832 40.4606 7.8832C44.3709 7.8832 47.5374 10.6896 47.5374 14.1594C47.5374 17.6293 44.3709 20.4357 40.4606 20.4357Z"
            fill="#333235" />
        <path
            d="M112.748 22.8453C109.112 25.2327 104.732 26.2016 100.435 25.5688C96.5765 24.9577 92.3705 23.2337 90.2522 19.7683C88.8342 17.3372 88.3645 14.4653 88.9343 11.7113C89.8738 6.823 93.0925 3.74162 98.225 3.22224C100.165 3.05202 102.122 3.22224 104.006 3.7198C107.546 4.64072 109.691 7.35984 109.821 10.5198C109.965 14.0507 108.064 16.8484 104.51 18.245C103.592 18.6029 102.653 18.8997 101.7 19.1965C101.618 19.2227 101.544 19.2751 101.496 19.3449C101.448 19.4148 101.422 19.502 101.426 19.5893C101.431 19.6766 101.465 19.7596 101.522 19.825C101.579 19.8905 101.657 19.9341 101.744 19.9516C104.928 20.6237 109.499 19.0918 111.739 16.4207L112.753 22.8453H112.748ZM95.9284 15.2859C95.9458 15.3819 95.998 15.4648 96.0763 15.5259C96.1546 15.5827 96.2503 15.6132 96.346 15.6001C98.2076 15.4212 99.8996 14.9367 101.365 13.7888C102.67 12.7719 103.192 11.0872 102.67 9.95239C102.148 8.8176 100.474 8.30695 98.847 8.78705C96.4678 9.42864 95.3021 11.9819 95.9328 15.2859H95.9284Z"
            fill="#333235" />
        <path
            d="M117.862 25.7339H122.911C123.09 25.7339 123.238 25.5593 123.238 25.3455V1.5237C123.238 1.30984 123.09 1.13525 122.911 1.13525H117.862C117.683 1.13525 117.535 1.30984 117.535 1.5237V25.3455C117.535 25.5593 117.683 25.7339 117.862 25.7339Z"
            fill="#333235" />
        <path
            d="M153.783 25.7339H158.833C159.011 25.7339 159.159 25.5593 159.159 25.3455V1.5237C159.159 1.30984 159.011 1.13525 158.833 1.13525H153.783C153.605 1.13525 153.457 1.30984 153.457 1.5237V25.3455C153.457 25.5593 153.605 25.7339 153.783 25.7339Z"
            fill="#333235" />
        <path
            d="M136.192 6.30762C135.861 4.69273 135.535 3.09094 135.204 1.47169C136.074 1.25346 136.922 1.13998 137.784 1.13561C141.046 1.11379 143.986 2.08272 146.457 4.23881C148.645 6.15049 149.945 8.59901 150.367 11.4883C150.758 14.1725 150.38 16.7433 149.106 19.1438C147.266 22.6005 144.421 24.7653 140.598 25.5728C137.958 26.1314 135.383 25.8259 132.947 24.6606C129.902 23.2028 127.693 20.9114 126.592 17.6947C125.044 13.16 128.027 8.21929 132.747 7.42058C135.135 7.01467 137.305 7.53842 139.149 9.15331C140.624 10.4452 141.642 12.0252 142.011 13.9892C142.142 14.6963 142.155 15.4034 142.085 16.1191C142.068 16.3068 141.972 16.3461 141.811 16.3636C140.415 16.5163 139.023 16.6734 137.627 16.8306C137.314 16.8655 137.005 16.9004 136.688 16.9353C136.805 16.5949 136.944 16.285 137.014 15.962C137.305 14.6701 136.718 13.4786 135.513 12.7715C134.213 12.0121 132.973 12.3831 132.177 13.1076C131.216 13.9849 130.968 15.3553 131.529 16.5381C132.829 19.266 135.552 20.8983 138.567 20.7499C141.894 20.5884 144.8 18.0221 145.348 14.7268C145.752 12.2871 145.121 10.1397 143.438 8.32841C142.377 7.18489 141.115 6.36872 139.541 6.12867C138.475 5.96718 137.427 6.05884 136.379 6.27706C136.322 6.29016 136.266 6.29452 136.192 6.30762Z"
            fill="#333235" />
    </g>
    <defs>
        <clipPath id="clip0_535_54">
            <rect width="160" height="25.5632" fill="white" transform="translate(0.724121 0.215332)" />
        </clipPath>
    </defs>
</svg>
    